# xmcd CD database file
#
# Track frame offsets:
#	150
#	17772
#	38327
#	52791
#	70645
#	88311
#	103763
#	120431
#	136917
#
# Disc length: 2250 seconds
#
# Revision: 1
# Processed by: cddbd v1.5.2PL0 Copyright (c) Steve Scherf et al.
# Submitted via: CDex 1.51
#
DISCID=6708c809
DTITLE=Adam Baker - Just Enough To Hurt
DYEAR=2003
DGENRE=Country
TTITLE0=When The World Winds Down
TTITLE1=Man In Love
TTITLE2=That's All She Wrote
TTITLE3=In Love With Her
TTITLE4=I'll Give You Me
TTITLE5=Just An Old Friend
TTITLE6=I'd Go Back To Her
TTITLE7=I've Made Mistakes
TTITLE8=Just Enough To Hurt
EXTD=YEAR: 2003
EXTT0=
EXTT1=
EXTT2=
EXTT3=
EXTT4=
EXTT5=
EXTT6=
EXTT7=
EXTT8=
PLAYORDER=
